<svg width="35" height="35" viewBox="0 0 35 35" fill="none" xmlns="http://www.w3.org/2000/svg">
<path d="M31.6472 31.2122H31.0737C31.1114 31.0843 31.1324 30.9494 31.1324 30.8095V29.8787C31.1324 29.0911 30.4917 28.4502 29.7041 28.4502H28.7427L27.8635 18.1508H29.2389C29.9022 18.1508 30.442 17.611 30.442 16.9477V16.1191C30.442 15.4558 29.9022 14.916 29.2389 14.916H29.2242C29.2968 14.7324 29.3371 14.5326 29.3371 14.3235C29.3371 13.4316 28.6115 12.706 27.7195 12.706H27.0629C27.8653 11.9798 28.3704 10.9308 28.3704 9.76589C28.3704 7.57941 26.5915 5.8005 24.405 5.8005C22.2184 5.8005 20.4395 7.57935 20.4395 9.76589C20.4395 10.9308 20.9446 11.9798 21.747 12.706H21.0903C20.1984 12.706 19.4728 13.4316 19.4728 14.3235C19.4728 14.5326 19.5131 14.7324 19.5857 14.916H19.5708C18.9075 14.916 18.3677 15.4558 18.3677 16.1191V16.9477C18.3677 17.611 18.9075 18.1508 19.5708 18.1508H20.9464L20.0672 28.4503H19.1058C18.7575 28.4503 18.4382 28.5759 18.19 28.7839C17.942 28.5761 17.6229 28.4506 17.2747 28.4506H16.9486L15.5818 24.3505C15.2701 23.4153 15.1121 22.4414 15.1121 21.4555V15.8573C15.7534 15.6423 16.2169 15.0363 16.2169 14.3235C16.2169 14.1145 16.1766 13.9149 16.1042 13.7313H16.1186C16.782 13.7313 17.3219 13.1916 17.3219 12.5281V11.6994C17.3219 11.036 16.7821 10.4962 16.1186 10.4962H16.1042C16.1766 10.3126 16.217 10.1129 16.217 9.90397C16.217 9.19085 15.7529 8.5845 15.1111 8.36985L16.0567 6.47855C16.1615 6.26883 16.217 6.03401 16.217 5.79954C16.217 4.96234 15.5359 4.28121 14.6987 4.28121H13.3776C13.7283 3.83141 13.938 3.26648 13.938 2.6533C13.938 1.19027 12.7477 0 11.2846 0C9.82161 0 8.63134 1.19027 8.63134 2.65337C8.63134 3.26662 8.84106 3.83147 9.19175 4.28128H7.87084C7.03364 4.28128 6.35251 4.96241 6.35251 5.79961C6.35251 6.03401 6.40802 6.26876 6.51288 6.47862L7.4585 8.36985C6.8166 8.5845 6.35251 9.19085 6.35251 9.90397C6.35251 10.1129 6.39277 10.3126 6.4653 10.4962H6.45095C5.78752 10.4962 5.24769 11.0359 5.24769 11.6994V12.5281C5.24769 13.1915 5.78745 13.7313 6.45095 13.7313H6.4653C6.39284 13.9149 6.35258 14.1145 6.35258 14.3235C6.35258 15.0363 6.81612 15.6423 7.45747 15.8573V21.4555C7.45747 22.4414 7.29942 23.4154 6.98764 24.3505L5.62086 28.4505H5.29465C4.50722 28.4505 3.86662 29.0911 3.86662 29.8785V30.8096C3.86662 30.9496 3.88774 31.0845 3.92541 31.2125H3.35153C2.49314 31.2125 1.79492 31.9108 1.79492 32.7691V33.4433C1.79492 34.3016 2.49321 34.9999 3.35153 34.9999H31.6471C32.5058 34.9999 33.2043 34.3017 33.2043 33.4434V32.7694C33.2044 31.9108 32.5058 31.2122 31.6472 31.2122ZM21.4649 9.76589C21.4649 8.14475 22.7838 6.82589 24.4049 6.82589C26.0261 6.82589 27.3449 8.14475 27.3449 9.76589C27.3449 11.387 26.0261 12.706 24.4049 12.706C22.7838 12.706 21.4649 11.387 21.4649 9.76589ZM19.3931 16.9477V16.1191C19.3931 16.0211 19.4728 15.9414 19.5708 15.9414H23.2021C23.4853 15.9414 23.7148 15.7119 23.7148 15.4287C23.7148 15.1455 23.4853 14.916 23.2021 14.916H21.0969C21.0948 14.916 21.0926 14.9157 21.0903 14.9157C20.7638 14.9157 20.4982 14.65 20.4982 14.3235C20.4982 13.997 20.7638 13.7313 21.0903 13.7313H27.7195C28.046 13.7313 28.3117 13.997 28.3117 14.3235C28.3117 14.65 28.046 14.9157 27.7195 14.9157C27.7173 14.9157 27.7152 14.9159 27.7129 14.916H25.6083C25.3251 14.916 25.0956 15.1455 25.0956 15.4287C25.0956 15.7119 25.3251 15.9414 25.6083 15.9414H29.2389C29.3369 15.9414 29.4166 16.0211 29.4166 16.1191V16.9477C29.4166 17.0457 29.3369 17.1254 29.2389 17.1254H19.5708C19.4728 17.1254 19.3931 17.0457 19.3931 16.9477ZM21.9754 18.1508H26.8344L27.7136 28.4503H21.0962L21.9754 18.1508ZM9.65666 2.65337C9.65666 1.75567 10.387 1.02539 11.2846 1.02539C12.1823 1.02539 12.9125 1.75574 12.9125 2.65337C12.9125 3.551 12.1822 4.28128 11.2846 4.28128C10.387 4.28135 9.65666 3.551 9.65666 2.65337ZM7.37783 5.79968C7.37783 5.52781 7.59891 5.30674 7.87077 5.30674H14.6985C14.9703 5.30674 15.1914 5.52781 15.1914 5.79968C15.1914 5.87576 15.1734 5.95205 15.1394 6.02007L14.0061 8.28652H8.56312L7.42985 6.02007C7.39588 5.95191 7.37783 5.87569 7.37783 5.79968ZM7.37783 9.90404C7.37783 9.57756 7.64355 9.31191 7.97003 9.31191H14.5992C14.9257 9.31191 15.1914 9.57756 15.1914 9.90404C15.1914 10.2305 14.9257 10.4962 14.5992 10.4962H7.97003C7.64355 10.4962 7.37783 10.2305 7.37783 9.90404ZM6.27301 12.5282V11.6995C6.27301 11.6014 6.35278 11.5216 6.45088 11.5216H16.1185C16.2166 11.5216 16.2963 11.6014 16.2963 11.6995V12.5282C16.2963 12.6263 16.2166 12.706 16.1185 12.706H6.45088C6.35278 12.706 6.27301 12.6262 6.27301 12.5282ZM7.97003 13.7313H14.5992C14.9257 13.7313 15.1914 13.997 15.1914 14.3235C15.1914 14.65 14.9257 14.9157 14.5992 14.9157H7.97003C7.64355 14.9157 7.37783 14.65 7.37783 14.3235C7.37783 13.997 7.64355 13.7313 7.97003 13.7313ZM5.29465 31.2122C5.07269 31.2122 4.89201 31.0316 4.89201 30.8096V29.8785C4.89201 29.6565 5.07269 29.4759 5.29465 29.4759H9.54182C9.82503 29.4759 10.0545 29.2464 10.0545 28.9632C10.0545 28.68 9.82503 28.4505 9.54182 28.4505H6.70176L7.96032 24.6748C8.30697 23.635 8.48279 22.5518 8.48279 21.4555V15.9411H14.0866V21.4555C14.0866 22.5518 14.2624 23.6349 14.609 24.6748L15.8677 28.4505H11.9482C11.665 28.4505 11.4355 28.68 11.4355 28.9632C11.4355 29.2464 11.665 29.4759 11.9482 29.4759H17.2748C17.4967 29.4759 17.6774 29.6565 17.6774 29.8785V30.8096C17.6774 31.0316 17.4967 31.2122 17.2748 31.2122C17.273 31.2122 17.2713 31.2125 17.2695 31.2125H5.29991C5.29814 31.2125 5.29643 31.2122 5.29465 31.2122ZM19.2173 33.9746H3.3516C3.05868 33.9746 2.82038 33.7363 2.82038 33.4433V32.7692C2.82038 32.4762 3.05868 32.2379 3.3516 32.2379H19.2177C19.5107 32.2379 19.749 32.4762 19.749 32.7692V33.4433C19.749 33.7363 19.5107 33.9746 19.2177 33.9746H19.2173ZM32.179 33.4435C32.179 33.7363 31.9405 33.9746 31.6472 33.9746H20.6809C20.7413 33.8087 20.7744 33.6298 20.7744 33.4433V32.7692C20.7744 32.5826 20.7413 32.4036 20.6808 32.2377H25.8667C26.1499 32.2377 26.3794 32.0082 26.3794 31.725C26.3794 31.4418 26.1499 31.2123 25.8667 31.2123L19.1057 31.2125C18.8835 31.2125 18.7027 31.0317 18.7027 30.8096V29.8787C18.7027 29.6565 18.8835 29.4757 19.1057 29.4757H29.7041C29.9263 29.4757 30.1071 29.6565 30.1071 29.8787V30.8096C30.1071 31.03 29.9292 31.2094 29.7095 31.2123H28.273C27.9898 31.2123 27.7603 31.4418 27.7603 31.725C27.7603 32.0082 27.9898 32.2377 28.273 32.2377H31.6472C31.9405 32.2377 32.179 32.4762 32.179 32.7695V33.4435Z" fill="white"/>
</svg>
