<svg width="26" height="14" viewBox="0 0 26 14" fill="none" xmlns="http://www.w3.org/2000/svg">
<line y1="-1" x2="7.55396" y2="-1" transform="matrix(-0.707107 0.707107 0.707107 0.707107 7.56055 2.37402)" stroke="#818181" stroke-width="2"/>
<line y1="-1" x2="7.55396" y2="-1" transform="matrix(-0.707107 0.707107 0.707107 0.707107 7.56055 2.37402)" stroke="#818181" stroke-width="2"/>
<line y1="-1" x2="7.55396" y2="-1" transform="matrix(-0.707107 0.707107 0.707107 0.707107 7.56055 2.37402)" stroke="#818181" stroke-width="2"/>
<line y1="-1" x2="7.55396" y2="-1" transform="matrix(-0.707107 0.707107 0.707107 0.707107 7.56055 2.37402)" stroke="#818181" stroke-width="2"/>
<line y1="-1" x2="7.55396" y2="-1" transform="matrix(-0.707107 0.707107 0.707107 0.707107 7.56055 2.37402)" stroke="#818181" stroke-width="2"/>
<line y1="-1" x2="7.55396" y2="-1" transform="matrix(-0.707107 -0.707107 -0.707107 0.707107 6.42773 13.3809)" stroke="#818181" stroke-width="2"/>
<line y1="-1" x2="7.55396" y2="-1" transform="matrix(-0.707107 -0.707107 -0.707107 0.707107 6.42773 13.3809)" stroke="#818181" stroke-width="2"/>
<line y1="-1" x2="7.55396" y2="-1" transform="matrix(-0.707107 -0.707107 -0.707107 0.707107 6.42773 13.3809)" stroke="#818181" stroke-width="2"/>
<line y1="-1" x2="7.55396" y2="-1" transform="matrix(-0.707107 -0.707107 -0.707107 0.707107 6.42773 13.3809)" stroke="#818181" stroke-width="2"/>
<line y1="-1" x2="7.55396" y2="-1" transform="matrix(-0.707107 -0.707107 -0.707107 0.707107 6.42773 13.3809)" stroke="#818181" stroke-width="2"/>
<path d="M1 7L26 7" stroke="#808080" stroke-width="2"/>
</svg>
